<svg xmlns="http://www.w3.org/2000/svg" viewBox="0 0 800 500">
  <defs>
    <linearGradient id="arrow_mazebg" x1="0" y1="0" x2="0" y2="1">
      <stop offset="0" stop-color="#E7F8EC"/>
      <stop offset="1" stop-color="#D7F2DF"/>
    </linearGradient>
    <radialGradient id="arrow_mazegA">
      <stop offset="0" stop-color="#43D67E" stop-opacity="0.42"/>
      <stop offset="1" stop-color="#43D67E" stop-opacity="0"/>
    </radialGradient>
    <radialGradient id="arrow_mazegB">
      <stop offset="0" stop-color="#149344" stop-opacity="0.10"/>
      <stop offset="1" stop-color="#149344" stop-opacity="0"/>
    </radialGradient>
    <linearGradient id="arrow_mazechipG" x1="0" y1="0" x2="1" y2="1">
      <stop offset="0" stop-color="#43D67E"/>
      <stop offset="1" stop-color="#149344"/>
    </linearGradient>
  </defs>
  <rect width="800" height="500" fill="url(#arrow_mazebg)"/>
  <circle cx="665" cy="85" r="245" fill="url(#arrow_mazegA)"/>
  <circle cx="105" cy="445" r="215" fill="url(#arrow_mazegB)"/>
  <circle cx="400" cy="250" r="168" fill="none" stroke="#149344" stroke-opacity="0.13" stroke-width="2"/>
  <g fill="#149344" fill-opacity="0.22"><circle cx="56" cy="64" r="3.5"/><circle cx="88" cy="64" r="3.5"/><circle cx="120" cy="64" r="3.5"/><circle cx="56" cy="96" r="3.5"/><circle cx="88" cy="96" r="3.5"/><circle cx="120" cy="96" r="3.5"/><circle cx="56" cy="128" r="3.5"/><circle cx="88" cy="128" r="3.5"/><circle cx="120" cy="128" r="3.5"/></g>
  <circle cx="668" cy="382" r="30" fill="none" stroke="#149344" stroke-opacity="0.20" stroke-width="3"/>
  <path d="M112 344h30M127 329v30" stroke="#149344" stroke-opacity="0.30" stroke-width="6" stroke-linecap="round"/>
  <circle cx="212" cy="118" r="7" fill="#43D67E" fill-opacity="0.60"/>
  <circle cx="594" cy="132" r="5" fill="#149344" fill-opacity="0.35"/>
  <rect x="298" y="148" width="204" height="204" rx="46" fill="#FFFFFF" fill-opacity="0.80" stroke="#149344" stroke-opacity="0.45" stroke-width="2.5"/>
  <g transform="translate(400 250)">
    <path d="M -62 -34 v -14 q 0 -10 10 -10 h 24" fill="none" stroke="#43D67E" stroke-opacity="0.90" stroke-width="9" stroke-linecap="round"/>
    <path d="M 62 34 v 14 q 0 10 -10 10 h -24" fill="none" stroke="#43D67E" stroke-opacity="0.90" stroke-width="9" stroke-linecap="round"/>
    <path d="M -46 46 L 46 -44" stroke="#149344" stroke-width="16" stroke-linecap="round"/>
    <path d="M 12 -46 L 48 -46 L 48 -10" fill="none" stroke="#149344" stroke-width="15" stroke-linecap="round" stroke-linejoin="round"/>
  </g>
</svg>
