<svg xmlns="http://www.w3.org/2000/svg" viewBox="0 0 800 500">
  <defs>
    <linearGradient id="stroop_rushbg" x1="0" y1="0" x2="0" y2="1">
      <stop offset="0" stop-color="#FDEBF4"/>
      <stop offset="1" stop-color="#FAD9EA"/>
    </linearGradient>
    <radialGradient id="stroop_rushgA">
      <stop offset="0" stop-color="#F06BAE" stop-opacity="0.42"/>
      <stop offset="1" stop-color="#F06BAE" stop-opacity="0"/>
    </radialGradient>
    <radialGradient id="stroop_rushgB">
      <stop offset="0" stop-color="#DB2777" stop-opacity="0.10"/>
      <stop offset="1" stop-color="#DB2777" stop-opacity="0"/>
    </radialGradient>
    <linearGradient id="stroop_rushchipG" x1="0" y1="0" x2="1" y2="1">
      <stop offset="0" stop-color="#F06BAE"/>
      <stop offset="1" stop-color="#DB2777"/>
    </linearGradient>
  </defs>
  <rect width="800" height="500" fill="url(#stroop_rushbg)"/>
  <circle cx="665" cy="85" r="245" fill="url(#stroop_rushgA)"/>
  <circle cx="105" cy="445" r="215" fill="url(#stroop_rushgB)"/>
  <circle cx="400" cy="250" r="168" fill="none" stroke="#DB2777" stroke-opacity="0.13" stroke-width="2"/>
  <g fill="#DB2777" fill-opacity="0.22"><circle cx="56" cy="64" r="3.5"/><circle cx="88" cy="64" r="3.5"/><circle cx="120" cy="64" r="3.5"/><circle cx="56" cy="96" r="3.5"/><circle cx="88" cy="96" r="3.5"/><circle cx="120" cy="96" r="3.5"/><circle cx="56" cy="128" r="3.5"/><circle cx="88" cy="128" r="3.5"/><circle cx="120" cy="128" r="3.5"/></g>
  <circle cx="668" cy="382" r="30" fill="none" stroke="#DB2777" stroke-opacity="0.20" stroke-width="3"/>
  <path d="M112 344h30M127 329v30" stroke="#DB2777" stroke-opacity="0.30" stroke-width="6" stroke-linecap="round"/>
  <circle cx="212" cy="118" r="7" fill="#F06BAE" fill-opacity="0.60"/>
  <circle cx="594" cy="132" r="5" fill="#DB2777" fill-opacity="0.35"/>
  <rect x="298" y="148" width="204" height="204" rx="46" fill="#FFFFFF" fill-opacity="0.80" stroke="#DB2777" stroke-opacity="0.45" stroke-width="2.5"/>
  <g transform="translate(400 250)">
    <circle cx="-24" cy="-16" r="36" fill="#DB2777" fill-opacity="0.92"/>
    <circle cx="28" cy="-10" r="30" fill="#F472B6" fill-opacity="0.82"/>
    <circle cx="-2" cy="30" r="32" fill="#0EA5E9" fill-opacity="0.82"/>
    <circle cx="-2" cy="2" r="20" fill="#FFFFFF"/>
    <path d="M -8 -4 a 10 10 0 1 1 10 12 v 4" fill="none" stroke="#BE185D" stroke-width="6" stroke-linecap="round"/>
    <circle cx="2" cy="22" r="4.5" fill="#BE185D"/>
  </g>
</svg>
